<svg xmlns="http://www.w3.org/2000/svg" width="480" height="480" viewBox="0 0 480 480" role="img" aria-labelledby="title"><title id="title">モバイルバッテリー 20000mAh — illustration</title><defs>
<linearGradient id="cream" x2="1" y2="1"><stop stop-color="#fcfcf3"/><stop offset="1" stop-color="#dedfd1"/></linearGradient>
<linearGradient id="metal" x2="1" y2="1"><stop stop-color="#c2c8b9"/><stop offset=".5" stop-color="#8d9880"/><stop offset="1" stop-color="#adb79f"/></linearGradient>
<linearGradient id="sage" x2="1" y2=".6"><stop stop-color="#b8c4a2"/><stop offset="1" stop-color="#7a8b64"/></linearGradient>
<linearGradient id="dark" x2="1" y2="1"><stop stop-color="#78846c"/><stop offset="1" stop-color="#3d4b35"/></linearGradient>
<pattern id="mesh" width="7" height="7" patternUnits="userSpaceOnUse"><rect width="7" height="7" fill="#647159"/><circle cx="3" cy="3" r="1.1" fill="#354530"/></pattern>
<filter id="shadow" x="-.5" y="-.5" width="2" height="2"><feDropShadow dx="5" dy="14" stdDeviation="10" flood-color="#394331" flood-opacity=".15"/></filter>
</defs><rect width="480" height="480" fill="#e6e9e2"/><ellipse cx="243" cy="389" rx="121" ry="13" fill="#384930" opacity=".06"/><g filter="url(#shadow)"><g transform="rotate(-20 240 240)"><rect x="160" y="105" width="165" height="265" rx="25" fill="url(#metal)"/><rect x="177" y="122" width="131" height="17" rx="5" fill="#7c8577"/><rect x="214" y="127" width="55" height="7" rx="3" fill="#343d34"/><text x="242" y="246" text-anchor="middle" fill="#f5f5e8" font-family="Arial" font-size="22">20 000</text><path d="M209 304h12m9 0h12m9 0h12m9 0h12" stroke="#e2eacd" stroke-width="4"/><path d="M243 105V82q0-30 40-30h43" fill="none" stroke="#5a6353" stroke-width="8" stroke-linecap="round"/></g></g></svg>