<svg xmlns="http://www.w3.org/2000/svg" width="480" height="480" viewBox="0 0 480 480" role="img" aria-labelledby="title"><title id="title">折りたたみノートPCスタンド — illustration</title><defs>
<linearGradient id="cream" x2="1" y2="1"><stop stop-color="#fcfcf3"/><stop offset="1" stop-color="#dedfd1"/></linearGradient>
<linearGradient id="metal" x2="1" y2="1"><stop stop-color="#c2c8b9"/><stop offset=".5" stop-color="#8d9880"/><stop offset="1" stop-color="#adb79f"/></linearGradient>
<linearGradient id="sage" x2="1" y2=".6"><stop stop-color="#b8c4a2"/><stop offset="1" stop-color="#7a8b64"/></linearGradient>
<linearGradient id="dark" x2="1" y2="1"><stop stop-color="#78846c"/><stop offset="1" stop-color="#3d4b35"/></linearGradient>
<pattern id="mesh" width="7" height="7" patternUnits="userSpaceOnUse"><rect width="7" height="7" fill="#647159"/><circle cx="3" cy="3" r="1.1" fill="#354530"/></pattern>
<filter id="shadow" x="-.5" y="-.5" width="2" height="2"><feDropShadow dx="5" dy="14" stdDeviation="10" flood-color="#394331" flood-opacity=".15"/></filter>
</defs><rect width="480" height="480" fill="#e6e9e2"/><ellipse cx="243" cy="389" rx="121" ry="13" fill="#384930" opacity=".06"/><g filter="url(#shadow)"><g transform="rotate(5 240 240)"><path d="m141 301 74-182 155 46-68 189Z" fill="url(#metal)"/><path d="m141 301-11 27 163 42 9-16Z" fill="#78856c"/><path d="m219 266-8 78m53-68 6 87" stroke="#87957a" stroke-width="13"/><path d="m190 347 100 29" stroke="#9aaa8a" stroke-width="18" stroke-linecap="round"/><path d="m228 155 106 31" stroke="#d4ddc8" stroke-width="8" stroke-linecap="round"/></g></g></svg>