<svg xmlns="http://www.w3.org/2000/svg" width="480" height="480" viewBox="0 0 480 480" role="img" aria-labelledby="title"><title id="title">コットンスローブランケット — illustration</title><defs>
<linearGradient id="cream" x2="1" y2="1"><stop stop-color="#fcfcf3"/><stop offset="1" stop-color="#dedfd1"/></linearGradient>
<linearGradient id="metal" x2="1" y2="1"><stop stop-color="#c2c8b9"/><stop offset=".5" stop-color="#8d9880"/><stop offset="1" stop-color="#adb79f"/></linearGradient>
<linearGradient id="sage" x2="1" y2=".6"><stop stop-color="#b8c4a2"/><stop offset="1" stop-color="#7a8b64"/></linearGradient>
<linearGradient id="dark" x2="1" y2="1"><stop stop-color="#78846c"/><stop offset="1" stop-color="#3d4b35"/></linearGradient>
<pattern id="mesh" width="7" height="7" patternUnits="userSpaceOnUse"><rect width="7" height="7" fill="#647159"/><circle cx="3" cy="3" r="1.1" fill="#354530"/></pattern>
<filter id="shadow" x="-.5" y="-.5" width="2" height="2"><feDropShadow dx="5" dy="14" stdDeviation="10" flood-color="#394331" flood-opacity=".15"/></filter>
</defs><rect width="480" height="480" fill="#e8e5da"/><ellipse cx="243" cy="389" rx="121" ry="13" fill="#384930" opacity=".06"/><g filter="url(#shadow)"><g transform="rotate(-5 240 240)"><g transform="rotate(-12 240 240)"><rect x="111" y="155" width="257" height="183" rx="18" fill="#b7bda5"/><path d="M129 170h222v136H129Z" fill="#cdd1bd"/><path d="M135 192h209m-209 22h209m-209 22h209m-209 22h209m-209 22h209" stroke="#b6bea6" stroke-width="5"/><path d="M129 337v20m18-20v20m18-20v20m18-20v20m18-20v20m18-20v20m18-20v20m18-20v20m18-20v20m18-20v20m18-20v20m18-20v20m18-20v20" stroke="#aab298" stroke-width="5"/></g></g></g></svg>