<svg xmlns="http://www.w3.org/2000/svg" width="480" height="480" viewBox="0 0 480 480" role="img" aria-labelledby="title"><title id="title">充電式LEDキャンプランタン — illustration</title><defs>
<linearGradient id="cream" x2="1" y2="1"><stop stop-color="#fcfcf3"/><stop offset="1" stop-color="#dedfd1"/></linearGradient>
<linearGradient id="metal" x2="1" y2="1"><stop stop-color="#c2c8b9"/><stop offset=".5" stop-color="#8d9880"/><stop offset="1" stop-color="#adb79f"/></linearGradient>
<linearGradient id="sage" x2="1" y2=".6"><stop stop-color="#b8c4a2"/><stop offset="1" stop-color="#7a8b64"/></linearGradient>
<linearGradient id="dark" x2="1" y2="1"><stop stop-color="#78846c"/><stop offset="1" stop-color="#3d4b35"/></linearGradient>
<pattern id="mesh" width="7" height="7" patternUnits="userSpaceOnUse"><rect width="7" height="7" fill="#647159"/><circle cx="3" cy="3" r="1.1" fill="#354530"/></pattern>
<filter id="shadow" x="-.5" y="-.5" width="2" height="2"><feDropShadow dx="5" dy="14" stdDeviation="10" flood-color="#394331" flood-opacity=".15"/></filter>
</defs><rect width="480" height="480" fill="#e1e7db"/><ellipse cx="243" cy="389" rx="121" ry="13" fill="#384930" opacity=".06"/><g filter="url(#shadow)"><g transform="rotate(5 240 240)"><path d="M182 159v-31a58 58 0 0 1 116 0v31" fill="none" stroke="#607b4d" stroke-width="11"/><path d="m160 163 29-35h102l29 35Z" fill="#78905e"/><rect x="171" y="170" width="138" height="162" rx="15" fill="#e4e5c4"/><path d="M187 175v153m106-153v153" stroke="#8a9b74" stroke-width="9"/><path d="M157 166h166m-166 168h166" stroke="#677f50" stroke-width="13"/><rect x="156" y="335" width="168" height="31" rx="10" fill="#78905e"/></g></g></svg>